<?xml version="1.0" encoding="UTF-8" standalone="no"?>
<svg
   width="602.74mm"
   height="320.13mm"
   version="1.1"
   viewBox="0 0 602.74 320.13"
   id="svg158"
   sodipodi:docname="color-palette.svg"
   inkscape:version="1.3.2 (091e20ef0f, 2023-11-25, custom)"
   xmlns:inkscape="http://www.inkscape.org/namespaces/inkscape"
   xmlns:sodipodi="http://sodipodi.sourceforge.net/DTD/sodipodi-0.dtd"
   xmlns="http://www.w3.org/2000/svg"
   xmlns:svg="http://www.w3.org/2000/svg">
  <defs
     id="defs158" />
  <sodipodi:namedview
     id="namedview158"
     pagecolor="#ffffff"
     bordercolor="#000000"
     borderopacity="0.25"
     inkscape:showpageshadow="2"
     inkscape:pageopacity="0.0"
     inkscape:pagecheckerboard="0"
     inkscape:deskcolor="#d1d1d1"
     inkscape:document-units="mm"
     inkscape:zoom="0.32889648"
     inkscape:cx="571.60843"
     inkscape:cy="-272.1221"
     inkscape:window-width="2239"
     inkscape:window-height="1550"
     inkscape:window-x="1362"
     inkscape:window-y="219"
     inkscape:window-maximized="0"
     inkscape:current-layer="svg158" />
  <path
     d="m581.42 21.323h-24.783v173.48h24.783v-148.7z"
     fill="#153873"
     id="path1" />
  <path
     d="m551.68 21.323h-24.784v173.48h24.784v-148.7z"
     fill="#265ab1"
     id="path2" />
  <path
     d="m521.94 21.323h-24.783v173.48h24.783v-148.7z"
     fill="#367bf0"
     id="path3" />
  <path
     d="m492.2 21.323h-24.783v173.48h24.783v-148.7z"
     fill="#4aaee6"
     id="path4" />
  <path
     d="m462.46 21.323h-24.783v173.48h24.783v-148.7z"
     fill="#23bac2"
     id="path5" />
  <path
     d="m432.72 21.323h-24.783v173.48h24.783v-148.7z"
     fill="#19a187"
     id="path6" />
  <path
     d="m402.98 21.323h-24.784v173.48h24.784v-148.7z"
     fill="#0ca15e"
     id="path7" />
  <path
     d="m373.24 21.323h-24.783v173.48h24.783v-148.7z"
     fill="#f8de68"
     id="path8" />
  <path
     d="m343.5 21.323h-24.783v173.48h24.783v-148.7z"
     fill="#ffc730"
     id="path9" />
  <path
     d="m313.76 21.323h-24.783v173.48h24.783v-148.7z"
     fill="#fd7d00"
     id="path10" />
  <path
     d="m284.02 21.323h-24.783v173.48h24.783v-148.7z"
     fill="#fd3535"
     id="path11" />
  <path
     d="m254.28 21.323h-24.783v173.48h24.783v-148.7z"
     fill="#d41919"
     id="path12" />
  <path
     d="m224.54 21.323h-24.783v173.48h24.783v-148.7z"
     fill="#b8174c"
     id="path13" />
  <path
     d="m194.8 21.323h-24.783v173.48h24.783v-148.7z"
     fill="#8c42ab"
     id="path14" />
  <path
     d="m165.06 21.323h-24.783v173.48h24.783v-148.7z"
     fill="#684c35"
     id="path15" />
  <path
     d="m135.32 21.323h-24.783v173.48h24.783v-148.7z"
     fill="#a16b3d"
     id="path16" />
  <path
     d="m105.59 21.323h-24.784v173.48h24.784v-148.7z"
     fill="#383c4a"
     id="path17" />
  <path
     d="m75.846 21.323h-24.783v173.48h24.783v-148.7z"
     id="path18" />
  <path
     d="m46.106 21.323h-24.783v173.48h24.783v-148.7z"
     id="path19" />
  <rect
     transform="rotate(90)"
     x="21.323"
     y="-551.68"
     width="24.783"
     height="24.783"
     rx="0"
     ry="0"
     fill-opacity=".3"
     stroke="#17181e"
     stroke-width="2.6458"
     id="rect19" />
  <rect
     transform="rotate(90)"
     x="21.323"
     y="-521.94"
     width="24.783"
     height="24.783"
     rx="0"
     ry="0"
     fill-opacity=".3"
     stroke="#17181e"
     stroke-width="2.6458"
     id="rect20" />
  <rect
     transform="rotate(90)"
     x="21.323"
     y="-492.2"
     width="24.783"
     height="24.783"
     rx="0"
     ry="0"
     fill-opacity=".3"
     stroke="#17181e"
     stroke-width="2.6458"
     id="rect21" />
  <rect
     transform="rotate(90)"
     x="21.323"
     y="-462.46"
     width="24.783"
     height="24.783"
     rx="0"
     ry="0"
     fill-opacity=".3"
     stroke="#17181e"
     stroke-width="2.6458"
     id="rect22" />
  <rect
     transform="rotate(90)"
     x="21.323"
     y="-432.72"
     width="24.783"
     height="24.783"
     rx="0"
     ry="0"
     fill-opacity=".3"
     stroke="#17181e"
     stroke-width="2.6458"
     id="rect23" />
  <rect
     transform="rotate(90)"
     x="21.323"
     y="-402.98"
     width="24.783"
     height="24.783"
     rx="0"
     ry="0"
     fill-opacity=".3"
     stroke="#17181e"
     stroke-width="2.6458"
     id="rect24" />
  <path
     d="m348.46 21.323v99.132h24.783v-99.132z"
     fill="none"
     stroke="#17181e"
     stroke-width="2.6458"
     id="path24" />
  <path
     d="m318.72 21.323v99.132h24.783v-99.132z"
     fill="none"
     stroke="#17181e"
     stroke-width="2.6458"
     id="path25" />
  <path
     d="m288.98 21.323v99.132h24.783v-99.132z"
     fill="none"
     stroke="#17181e"
     stroke-width="2.6458"
     id="path26" />
  <rect
     transform="rotate(90)"
     x="21.323"
     y="-284.02"
     width="24.783"
     height="24.783"
     rx="0"
     ry="0"
     fill-opacity=".3"
     stroke="#17181e"
     stroke-width="2.6458"
     id="rect26" />
  <rect
     transform="rotate(90)"
     x="21.323"
     y="-254.28"
     width="24.783"
     height="24.783"
     rx="0"
     ry="0"
     fill-opacity=".3"
     stroke="#17181e"
     stroke-width="2.6458"
     id="rect27" />
  <rect
     transform="rotate(90)"
     x="21.323"
     y="-224.54"
     width="24.783"
     height="24.783"
     rx="0"
     ry="0"
     fill-opacity=".3"
     stroke="#17181e"
     stroke-width="2.6458"
     id="rect28" />
  <rect
     transform="rotate(90)"
     x="21.323"
     y="-194.8"
     width="24.783"
     height="24.783"
     rx="0"
     ry="0"
     fill-opacity=".3"
     stroke="#17181e"
     stroke-width="2.6458"
     id="rect29" />
  <rect
     transform="rotate(90)"
     x="21.323"
     y="-165.06"
     width="24.783"
     height="24.783"
     rx="0"
     ry="0"
     fill-opacity=".3"
     stroke="#17181e"
     stroke-width="2.6458"
     id="rect30" />
  <rect
     transform="rotate(90)"
     x="21.323"
     y="-135.32"
     width="24.783"
     height="24.783"
     rx="0"
     ry="0"
     fill-opacity=".3"
     stroke="#17181e"
     stroke-width="2.6458"
     id="rect31" />
  <rect
     transform="rotate(90)"
     x="21.323"
     y="-105.59"
     width="24.783"
     height="24.783"
     rx="0"
     ry="0"
     fill-opacity=".3"
     stroke="#17181e"
     stroke-width="2.6458"
     id="rect32" />
  <rect
     transform="rotate(90)"
     x="46.106"
     y="-75.846"
     width="24.783"
     height="24.783"
     rx="0"
     ry="0"
     fill-opacity="0"
     stroke="#17181e"
     stroke-width="2.6458"
     id="rect33" />
  <rect
     transform="rotate(90)"
     x="46.106"
     y="-46.106"
     width="24.783"
     height="24.783"
     rx="0"
     ry="0"
     fill="#fff"
     fill-opacity=".7"
     stroke="#17181e"
     stroke-width="2.6458"
     id="rect34" />
  <rect
     transform="rotate(90)"
     x="46.106"
     y="-581.42"
     width="24.783"
     height="24.783"
     rx="0"
     ry="0"
     fill-opacity=".2"
     stroke="#17181e"
     stroke-width="2.6458"
     id="rect35" />
  <rect
     transform="rotate(90)"
     x="46.106"
     y="-551.68"
     width="24.783"
     height="24.783"
     rx="0"
     ry="0"
     fill-opacity=".2"
     stroke="#17181e"
     stroke-width="2.6458"
     id="rect36" />
  <rect
     transform="rotate(90)"
     x="46.106"
     y="-521.94"
     width="24.783"
     height="24.783"
     rx="0"
     ry="0"
     fill-opacity=".2"
     stroke="#17181e"
     stroke-width="2.6458"
     id="rect37" />
  <rect
     transform="rotate(90)"
     x="46.106"
     y="-492.2"
     width="24.783"
     height="24.783"
     rx="0"
     ry="0"
     fill-opacity=".2"
     stroke="#17181e"
     stroke-width="2.6458"
     id="rect38" />
  <rect
     transform="rotate(90)"
     x="46.106"
     y="-462.46"
     width="24.783"
     height="24.783"
     rx="0"
     ry="0"
     fill-opacity=".2"
     stroke="#17181e"
     stroke-width="2.6458"
     id="rect39" />
  <rect
     transform="rotate(90)"
     x="46.106"
     y="-432.72"
     width="24.783"
     height="24.783"
     rx="0"
     ry="0"
     fill-opacity=".2"
     stroke="#17181e"
     stroke-width="2.6458"
     id="rect40" />
  <rect
     transform="rotate(90)"
     x="46.106"
     y="-402.98"
     width="24.783"
     height="24.783"
     rx="0"
     ry="0"
     fill-opacity=".2"
     stroke="#17181e"
     stroke-width="2.6458"
     id="rect41" />
  <rect
     transform="rotate(90)"
     x="46.106"
     y="-284.02"
     width="24.783"
     height="24.783"
     rx="0"
     ry="0"
     fill-opacity=".2"
     stroke="#17181e"
     stroke-width="2.6458"
     id="rect42" />
  <rect
     transform="rotate(90)"
     x="46.106"
     y="-254.28"
     width="24.783"
     height="24.783"
     rx="0"
     ry="0"
     fill-opacity=".2"
     stroke="#17181e"
     stroke-width="2.6458"
     id="rect43" />
  <rect
     transform="rotate(90)"
     x="46.106"
     y="-224.54"
     width="24.783"
     height="24.783"
     rx="0"
     ry="0"
     fill-opacity=".2"
     stroke="#17181e"
     stroke-width="2.6458"
     id="rect44" />
  <rect
     transform="rotate(90)"
     x="46.106"
     y="-194.8"
     width="24.783"
     height="24.783"
     rx="0"
     ry="0"
     fill-opacity=".2"
     stroke="#17181e"
     stroke-width="2.6458"
     id="rect45" />
  <rect
     transform="rotate(90)"
     x="46.106"
     y="-165.06"
     width="24.783"
     height="24.783"
     rx="0"
     ry="0"
     fill-opacity=".2"
     stroke="#17181e"
     stroke-width="2.6458"
     id="rect46" />
  <rect
     transform="rotate(90)"
     x="46.106"
     y="-135.32"
     width="24.783"
     height="24.783"
     rx="0"
     ry="0"
     fill-opacity=".2"
     stroke="#17181e"
     stroke-width="2.6458"
     id="rect47" />
  <rect
     transform="rotate(90)"
     x="46.106"
     y="-105.59"
     width="24.783"
     height="24.783"
     rx="0"
     ry="0"
     fill-opacity=".2"
     stroke="#17181e"
     stroke-width="2.6458"
     id="rect48" />
  <rect
     transform="rotate(90)"
     x="70.889"
     y="-75.846"
     width="24.783"
     height="24.783"
     rx="0"
     ry="0"
     fill="#fff"
     fill-opacity=".1"
     stroke="#17181e"
     stroke-width="2.6458"
     id="rect49" />
  <rect
     transform="rotate(90)"
     x="70.889"
     y="-46.106"
     width="24.783"
     height="24.783"
     rx="0"
     ry="0"
     fill="#fff"
     fill-opacity=".8"
     stroke="#17181e"
     stroke-width="2.6458"
     id="rect50" />
  <rect
     transform="rotate(90)"
     x="70.889"
     y="-581.42"
     width="24.783"
     height="24.783"
     rx="0"
     ry="0"
     fill-opacity=".1"
     stroke="#17181e"
     stroke-width="2.6458"
     id="rect51" />
  <rect
     transform="rotate(90)"
     x="70.889"
     y="-551.68"
     width="24.783"
     height="24.783"
     rx="0"
     ry="0"
     fill-opacity=".1"
     stroke="#17181e"
     stroke-width="2.6458"
     id="rect52" />
  <rect
     transform="rotate(90)"
     x="70.889"
     y="-521.94"
     width="24.783"
     height="24.783"
     rx="0"
     ry="0"
     fill-opacity=".1"
     stroke="#17181e"
     stroke-width="2.6458"
     id="rect53" />
  <rect
     transform="rotate(90)"
     x="70.889"
     y="-492.2"
     width="24.783"
     height="24.783"
     rx="0"
     ry="0"
     fill-opacity=".1"
     stroke="#17181e"
     stroke-width="2.6458"
     id="rect54" />
  <rect
     transform="rotate(90)"
     x="70.889"
     y="-462.46"
     width="24.783"
     height="24.783"
     rx="0"
     ry="0"
     fill-opacity=".1"
     stroke="#17181e"
     stroke-width="2.6458"
     id="rect55" />
  <rect
     transform="rotate(90)"
     x="70.889"
     y="-432.72"
     width="24.783"
     height="24.783"
     rx="0"
     ry="0"
     fill-opacity=".1"
     stroke="#17181e"
     stroke-width="2.6458"
     id="rect56" />
  <rect
     transform="rotate(90)"
     x="70.889"
     y="-402.98"
     width="24.783"
     height="24.783"
     rx="0"
     ry="0"
     fill-opacity=".1"
     stroke="#17181e"
     stroke-width="2.6458"
     id="rect57" />
  <rect
     transform="rotate(90)"
     x="70.889"
     y="-284.02"
     width="24.783"
     height="24.783"
     rx="0"
     ry="0"
     fill-opacity=".1"
     stroke="#17181e"
     stroke-width="2.6458"
     id="rect58" />
  <rect
     transform="rotate(90)"
     x="70.889"
     y="-254.28"
     width="24.783"
     height="24.783"
     rx="0"
     ry="0"
     fill-opacity=".1"
     stroke="#17181e"
     stroke-width="2.6458"
     id="rect59" />
  <rect
     transform="rotate(90)"
     x="70.889"
     y="-224.54"
     width="24.783"
     height="24.783"
     rx="0"
     ry="0"
     fill-opacity=".1"
     stroke="#17181e"
     stroke-width="2.6458"
     id="rect60" />
  <rect
     transform="rotate(90)"
     x="70.889"
     y="-194.8"
     width="24.783"
     height="24.783"
     rx="0"
     ry="0"
     fill-opacity=".1"
     stroke="#17181e"
     stroke-width="2.6458"
     id="rect61" />
  <rect
     transform="rotate(90)"
     x="70.889"
     y="-165.06"
     width="24.783"
     height="24.783"
     rx="0"
     ry="0"
     fill-opacity=".1"
     stroke="#17181e"
     stroke-width="2.6458"
     id="rect62" />
  <rect
     transform="rotate(90)"
     x="70.889"
     y="-135.32"
     width="24.783"
     height="24.783"
     rx="0"
     ry="0"
     fill-opacity=".1"
     stroke="#17181e"
     stroke-width="2.6458"
     id="rect63" />
  <rect
     transform="rotate(90)"
     x="70.889"
     y="-105.59"
     width="24.783"
     height="24.783"
     rx="0"
     ry="0"
     fill-opacity=".1"
     stroke="#17181e"
     stroke-width="2.6458"
     id="rect64" />
  <rect
     transform="rotate(90)"
     x="95.672"
     y="-75.846"
     width="24.783"
     height="24.783"
     rx="0"
     ry="0"
     fill="#fff"
     fill-opacity=".2"
     stroke="#17181e"
     stroke-width="2.6458"
     id="rect65" />
  <rect
     transform="rotate(90)"
     x="95.672"
     y="-46.106"
     width="24.783"
     height="24.783"
     rx="0"
     ry="0"
     fill="#fff"
     fill-opacity=".9"
     stroke="#17181e"
     stroke-width="2.6458"
     id="rect66" />
  <rect
     transform="rotate(90)"
     x="120.46"
     y="-581.42"
     width="24.783"
     height="24.783"
     rx="0"
     ry="0"
     fill="#fff"
     fill-opacity=".1"
     stroke="#17181e"
     stroke-width="2.6458"
     id="rect67" />
  <rect
     transform="rotate(90)"
     x="120.46"
     y="-551.68"
     width="24.783"
     height="24.783"
     rx="0"
     ry="0"
     fill="#fff"
     fill-opacity=".1"
     stroke="#17181e"
     stroke-width="2.6458"
     id="rect68" />
  <rect
     transform="rotate(90)"
     x="120.46"
     y="-521.94"
     width="24.783"
     height="24.783"
     rx="0"
     ry="0"
     fill="#fff"
     fill-opacity=".1"
     stroke="#17181e"
     stroke-width="2.6458"
     id="rect69" />
  <rect
     transform="rotate(90)"
     x="120.46"
     y="-492.2"
     width="24.783"
     height="24.783"
     rx="0"
     ry="0"
     fill="#fff"
     fill-opacity=".1"
     stroke="#17181e"
     stroke-width="2.6458"
     id="rect70" />
  <rect
     transform="rotate(90)"
     x="120.46"
     y="-462.46"
     width="24.783"
     height="24.783"
     rx="0"
     ry="0"
     fill="#fff"
     fill-opacity=".1"
     stroke="#17181e"
     stroke-width="2.6458"
     id="rect71" />
  <rect
     transform="rotate(90)"
     x="120.46"
     y="-432.72"
     width="24.783"
     height="24.783"
     rx="0"
     ry="0"
     fill="#fff"
     fill-opacity=".1"
     stroke="#17181e"
     stroke-width="2.6458"
     id="rect72" />
  <rect
     transform="rotate(90)"
     x="120.46"
     y="-402.98"
     width="24.783"
     height="24.783"
     rx="0"
     ry="0"
     fill="#fff"
     fill-opacity=".1"
     stroke="#17181e"
     stroke-width="2.6458"
     id="rect73" />
  <rect
     transform="rotate(90)"
     x="120.46"
     y="-373.24"
     width="24.783"
     height="24.783"
     rx="0"
     ry="0"
     fill="#fff"
     fill-opacity=".1"
     stroke="#17181e"
     stroke-width="2.6458"
     id="rect74" />
  <rect
     transform="rotate(90)"
     x="120.46"
     y="-343.5"
     width="24.783"
     height="24.783"
     rx="0"
     ry="0"
     fill="#fff"
     fill-opacity=".1"
     stroke="#17181e"
     stroke-width="2.6458"
     id="rect75" />
  <rect
     transform="rotate(90)"
     x="120.46"
     y="-313.76"
     width="24.783"
     height="24.783"
     rx="0"
     ry="0"
     fill="#fff"
     fill-opacity=".1"
     stroke="#17181e"
     stroke-width="2.6458"
     id="rect76" />
  <rect
     transform="rotate(90)"
     x="120.46"
     y="-284.02"
     width="24.783"
     height="24.783"
     rx="0"
     ry="0"
     fill="#fff"
     fill-opacity=".1"
     stroke="#17181e"
     stroke-width="2.6458"
     id="rect77" />
  <rect
     transform="rotate(90)"
     x="120.46"
     y="-254.28"
     width="24.783"
     height="24.783"
     rx="0"
     ry="0"
     fill="#fff"
     fill-opacity=".1"
     stroke="#17181e"
     stroke-width="2.6458"
     id="rect78" />
  <rect
     transform="rotate(90)"
     x="120.46"
     y="-224.54"
     width="24.783"
     height="24.783"
     rx="0"
     ry="0"
     fill="#fff"
     fill-opacity=".1"
     stroke="#17181e"
     stroke-width="2.6458"
     id="rect79" />
  <rect
     transform="rotate(90)"
     x="120.46"
     y="-194.8"
     width="24.783"
     height="24.783"
     rx="0"
     ry="0"
     fill="#fff"
     fill-opacity=".1"
     stroke="#17181e"
     stroke-width="2.6458"
     id="rect80" />
  <rect
     transform="rotate(90)"
     x="120.46"
     y="-165.06"
     width="24.783"
     height="24.783"
     rx="0"
     ry="0"
     fill="#fff"
     fill-opacity=".1"
     stroke="#17181e"
     stroke-width="2.6458"
     id="rect81" />
  <rect
     transform="rotate(90)"
     x="120.46"
     y="-135.32"
     width="24.783"
     height="24.783"
     rx="0"
     ry="0"
     fill="#fff"
     fill-opacity=".1"
     stroke="#17181e"
     stroke-width="2.6458"
     id="rect82" />
  <rect
     transform="rotate(90)"
     x="120.46"
     y="-105.59"
     width="24.783"
     height="24.783"
     rx="0"
     ry="0"
     fill="#fff"
     fill-opacity=".1"
     stroke="#17181e"
     stroke-width="2.6458"
     id="rect83" />
  <rect
     transform="rotate(90)"
     x="145.24"
     y="-75.846"
     width="24.783"
     height="24.783"
     rx="0"
     ry="0"
     fill="#fff"
     fill-opacity=".4"
     stroke="#17181e"
     stroke-width="2.6458"
     id="rect84" />
  <rect
     transform="rotate(90)"
     x="145.24"
     y="-581.42"
     width="24.783"
     height="24.783"
     rx="0"
     ry="0"
     fill="#fff"
     fill-opacity=".2"
     stroke="#17181e"
     stroke-width="2.6458"
     id="rect85" />
  <rect
     transform="rotate(90)"
     x="145.24"
     y="-551.68"
     width="24.783"
     height="24.783"
     rx="0"
     ry="0"
     fill="#fff"
     fill-opacity=".2"
     stroke="#17181e"
     stroke-width="2.6458"
     id="rect86" />
  <rect
     transform="rotate(90)"
     x="145.24"
     y="-521.94"
     width="24.783"
     height="24.783"
     rx="0"
     ry="0"
     fill="#fff"
     fill-opacity=".2"
     stroke="#17181e"
     stroke-width="2.6458"
     id="rect87" />
  <rect
     transform="rotate(90)"
     x="145.24"
     y="-492.2"
     width="24.783"
     height="24.783"
     rx="0"
     ry="0"
     fill="#fff"
     fill-opacity=".2"
     stroke="#17181e"
     stroke-width="2.6458"
     id="rect88" />
  <rect
     transform="rotate(90)"
     x="145.24"
     y="-462.46"
     width="24.783"
     height="24.783"
     rx="0"
     ry="0"
     fill="#fff"
     fill-opacity=".2"
     stroke="#17181e"
     stroke-width="2.6458"
     id="rect89" />
  <rect
     transform="rotate(90)"
     x="145.24"
     y="-432.72"
     width="24.783"
     height="24.783"
     rx="0"
     ry="0"
     fill="#fff"
     fill-opacity=".2"
     stroke="#17181e"
     stroke-width="2.6458"
     id="rect90" />
  <rect
     transform="rotate(90)"
     x="145.24"
     y="-402.98"
     width="24.783"
     height="24.783"
     rx="0"
     ry="0"
     fill="#fff"
     fill-opacity=".2"
     stroke="#17181e"
     stroke-width="2.6458"
     id="rect91" />
  <rect
     transform="rotate(90)"
     x="145.24"
     y="-373.24"
     width="24.783"
     height="24.783"
     rx="0"
     ry="0"
     fill="#fff"
     fill-opacity=".2"
     stroke="#17181e"
     stroke-width="2.6458"
     id="rect92" />
  <rect
     transform="rotate(90)"
     x="145.24"
     y="-343.5"
     width="24.783"
     height="24.783"
     rx="0"
     ry="0"
     fill="#fff"
     fill-opacity=".2"
     stroke="#17181e"
     stroke-width="2.6458"
     id="rect93" />
  <rect
     transform="rotate(90)"
     x="145.24"
     y="-313.76"
     width="24.783"
     height="24.783"
     rx="0"
     ry="0"
     fill="#fff"
     fill-opacity=".2"
     stroke="#17181e"
     stroke-width="2.6458"
     id="rect94" />
  <rect
     transform="rotate(90)"
     x="145.24"
     y="-284.02"
     width="24.783"
     height="24.783"
     rx="0"
     ry="0"
     fill="#fff"
     fill-opacity=".2"
     stroke="#17181e"
     stroke-width="2.6458"
     id="rect95" />
  <rect
     transform="rotate(90)"
     x="145.24"
     y="-254.28"
     width="24.783"
     height="24.783"
     rx="0"
     ry="0"
     fill="#fff"
     fill-opacity=".2"
     stroke="#17181e"
     stroke-width="2.6458"
     id="rect96" />
  <rect
     transform="rotate(90)"
     x="145.24"
     y="-224.54"
     width="24.783"
     height="24.783"
     rx="0"
     ry="0"
     fill="#fff"
     fill-opacity=".2"
     stroke="#17181e"
     stroke-width="2.6458"
     id="rect97" />
  <rect
     transform="rotate(90)"
     x="145.24"
     y="-194.8"
     width="24.783"
     height="24.783"
     rx="0"
     ry="0"
     fill="#fff"
     fill-opacity=".2"
     stroke="#17181e"
     stroke-width="2.6458"
     id="rect98" />
  <rect
     transform="rotate(90)"
     x="145.24"
     y="-165.06"
     width="24.783"
     height="24.783"
     rx="0"
     ry="0"
     fill="#fff"
     fill-opacity=".2"
     stroke="#17181e"
     stroke-width="2.6458"
     id="rect99" />
  <rect
     transform="rotate(90)"
     x="145.24"
     y="-135.32"
     width="24.783"
     height="24.783"
     rx="0"
     ry="0"
     fill="#fff"
     fill-opacity=".2"
     stroke="#17181e"
     stroke-width="2.6458"
     id="rect100" />
  <rect
     transform="rotate(90)"
     x="145.24"
     y="-105.59"
     width="24.783"
     height="24.783"
     rx="0"
     ry="0"
     fill="#fff"
     fill-opacity=".2"
     stroke="#17181e"
     stroke-width="2.6458"
     id="rect101" />
  <rect
     transform="rotate(90)"
     x="170.02"
     y="-75.846"
     width="24.783"
     height="24.783"
     rx="0"
     ry="0"
     fill="#fff"
     fill-opacity=".5"
     stroke="#17181e"
     stroke-width="2.6458"
     id="rect102" />
  <rect
     transform="rotate(90)"
     x="170.02"
     y="-581.42"
     width="24.783"
     height="24.783"
     rx="0"
     ry="0"
     fill="#fff"
     fill-opacity=".3"
     stroke="#17181e"
     stroke-width="2.6458"
     id="rect103" />
  <rect
     transform="rotate(90)"
     x="170.02"
     y="-551.68"
     width="24.783"
     height="24.783"
     rx="0"
     ry="0"
     fill="#fff"
     fill-opacity=".3"
     stroke="#17181e"
     stroke-width="2.6458"
     id="rect104" />
  <rect
     transform="rotate(90)"
     x="170.02"
     y="-521.94"
     width="24.783"
     height="24.783"
     rx="0"
     ry="0"
     fill="#fff"
     fill-opacity=".3"
     stroke="#17181e"
     stroke-width="2.6458"
     id="rect105" />
  <rect
     transform="rotate(90)"
     x="170.02"
     y="-492.2"
     width="24.783"
     height="24.783"
     rx="0"
     ry="0"
     fill="#fff"
     fill-opacity=".3"
     stroke="#17181e"
     stroke-width="2.6458"
     id="rect106" />
  <rect
     transform="rotate(90)"
     x="170.02"
     y="-462.46"
     width="24.783"
     height="24.783"
     rx="0"
     ry="0"
     fill="#fff"
     fill-opacity=".3"
     stroke="#17181e"
     stroke-width="2.6458"
     id="rect107" />
  <rect
     transform="rotate(90)"
     x="170.02"
     y="-432.72"
     width="24.783"
     height="24.783"
     rx="0"
     ry="0"
     fill="#fff"
     fill-opacity=".3"
     stroke="#17181e"
     stroke-width="2.6458"
     id="rect108" />
  <rect
     transform="rotate(90)"
     x="170.02"
     y="-402.98"
     width="24.783"
     height="24.783"
     rx="0"
     ry="0"
     fill="#fff"
     fill-opacity=".3"
     stroke="#17181e"
     stroke-width="2.6458"
     id="rect109" />
  <rect
     transform="rotate(90)"
     x="170.02"
     y="-373.24"
     width="24.783"
     height="24.783"
     rx="0"
     ry="0"
     fill="#fff"
     fill-opacity=".3"
     stroke="#17181e"
     stroke-width="2.6458"
     id="rect110" />
  <rect
     transform="rotate(90)"
     x="170.02"
     y="-343.5"
     width="24.783"
     height="24.783"
     rx="0"
     ry="0"
     fill="#fff"
     fill-opacity=".3"
     stroke="#17181e"
     stroke-width="2.6458"
     id="rect111" />
  <rect
     transform="rotate(90)"
     x="170.02"
     y="-313.76"
     width="24.783"
     height="24.783"
     rx="0"
     ry="0"
     fill="#fff"
     fill-opacity=".3"
     stroke="#17181e"
     stroke-width="2.6458"
     id="rect112" />
  <rect
     transform="rotate(90)"
     x="170.02"
     y="-284.02"
     width="24.783"
     height="24.783"
     rx="0"
     ry="0"
     fill="#fff"
     fill-opacity=".3"
     stroke="#17181e"
     stroke-width="2.6458"
     id="rect113" />
  <rect
     transform="rotate(90)"
     x="170.02"
     y="-254.28"
     width="24.783"
     height="24.783"
     rx="0"
     ry="0"
     fill="#fff"
     fill-opacity=".3"
     stroke="#17181e"
     stroke-width="2.6458"
     id="rect114" />
  <rect
     transform="rotate(90)"
     x="170.02"
     y="-224.54"
     width="24.783"
     height="24.783"
     rx="0"
     ry="0"
     fill="#fff"
     fill-opacity=".3"
     stroke="#17181e"
     stroke-width="2.6458"
     id="rect115" />
  <rect
     transform="rotate(90)"
     x="170.02"
     y="-194.8"
     width="24.783"
     height="24.783"
     rx="0"
     ry="0"
     fill="#fff"
     fill-opacity=".3"
     stroke="#17181e"
     stroke-width="2.6458"
     id="rect116" />
  <rect
     transform="rotate(90)"
     x="170.02"
     y="-165.06"
     width="24.783"
     height="24.783"
     rx="0"
     ry="0"
     fill="#fff"
     fill-opacity=".3"
     stroke="#17181e"
     stroke-width="2.6458"
     id="rect117" />
  <rect
     transform="rotate(90)"
     x="170.02"
     y="-135.32"
     width="24.783"
     height="24.783"
     rx="0"
     ry="0"
     fill="#fff"
     fill-opacity=".3"
     stroke="#17181e"
     stroke-width="2.6458"
     id="rect118" />
  <rect
     transform="rotate(90)"
     x="170.02"
     y="-105.59"
     width="24.783"
     height="24.783"
     rx="0"
     ry="0"
     fill="#fff"
     fill-opacity=".3"
     stroke="#17181e"
     stroke-width="2.6458"
     id="rect119" />
  <rect
     transform="rotate(90)"
     x="21.323"
     y="-46.106"
     width="24.783"
     height="24.783"
     rx="0"
     ry="0"
     fill="#fff"
     fill-opacity=".6"
     stroke="#17181e"
     stroke-width="2.6458"
     id="rect120" />
  <rect
     transform="rotate(90)"
     x="21.323"
     y="-581.42"
     width="24.783"
     height="24.783"
     rx="0"
     ry="0"
     fill-opacity=".3"
     stroke="#17181e"
     stroke-width="2.6458"
     id="rect121" />
  <rect
     transform="rotate(90)"
     x="95.672"
     y="-581.42"
     width="24.783"
     height="24.783"
     rx="0"
     ry="0"
     fill="none"
     stroke="#17181e"
     stroke-width="2.6458"
     id="rect122" />
  <rect
     transform="rotate(90)"
     x="95.672"
     y="-551.68"
     width="24.783"
     height="24.783"
     rx="0"
     ry="0"
     fill="none"
     stroke="#17181e"
     stroke-width="2.6458"
     id="rect123" />
  <rect
     transform="rotate(90)"
     x="95.672"
     y="-521.94"
     width="24.783"
     height="24.783"
     rx="0"
     ry="0"
     fill="none"
     stroke="#17181e"
     stroke-width="2.6458"
     id="rect124" />
  <rect
     transform="rotate(90)"
     x="95.672"
     y="-492.2"
     width="24.783"
     height="24.783"
     rx="0"
     ry="0"
     fill="none"
     stroke="#17181e"
     stroke-width="2.6458"
     id="rect125" />
  <rect
     transform="rotate(90)"
     x="95.672"
     y="-462.46"
     width="24.783"
     height="24.783"
     rx="0"
     ry="0"
     fill="none"
     stroke="#17181e"
     stroke-width="2.6458"
     id="rect126" />
  <rect
     transform="rotate(90)"
     x="95.672"
     y="-432.72"
     width="24.783"
     height="24.783"
     rx="0"
     ry="0"
     fill="none"
     stroke="#17181e"
     stroke-width="2.6458"
     id="rect127" />
  <rect
     transform="rotate(90)"
     x="95.672"
     y="-402.98"
     width="24.783"
     height="24.783"
     rx="0"
     ry="0"
     fill="none"
     stroke="#17181e"
     stroke-width="2.6458"
     id="rect128" />
  <rect
     transform="rotate(90)"
     x="95.672"
     y="-284.02"
     width="24.783"
     height="24.783"
     rx="0"
     ry="0"
     fill="none"
     stroke="#17181e"
     stroke-width="2.6458"
     id="rect129" />
  <rect
     transform="rotate(90)"
     x="95.672"
     y="-254.28"
     width="24.783"
     height="24.783"
     rx="0"
     ry="0"
     fill="none"
     stroke="#17181e"
     stroke-width="2.6458"
     id="rect130" />
  <rect
     transform="rotate(90)"
     x="95.672"
     y="-224.54"
     width="24.783"
     height="24.783"
     rx="0"
     ry="0"
     fill="none"
     stroke="#17181e"
     stroke-width="2.6458"
     id="rect131" />
  <rect
     transform="rotate(90)"
     x="95.672"
     y="-194.8"
     width="24.783"
     height="24.783"
     rx="0"
     ry="0"
     fill="none"
     stroke="#17181e"
     stroke-width="2.6458"
     id="rect132" />
  <rect
     transform="rotate(90)"
     x="95.672"
     y="-165.06"
     width="24.783"
     height="24.783"
     rx="0"
     ry="0"
     fill="none"
     stroke="#17181e"
     stroke-width="2.6458"
     id="rect133" />
  <rect
     transform="rotate(90)"
     x="95.672"
     y="-135.32"
     width="24.783"
     height="24.783"
     rx="0"
     ry="0"
     fill="none"
     stroke="#17181e"
     stroke-width="2.6458"
     id="rect134" />
  <rect
     transform="rotate(90)"
     x="95.672"
     y="-105.59"
     width="24.783"
     height="24.783"
     rx="0"
     ry="0"
     fill="none"
     stroke="#17181e"
     stroke-width="2.6458"
     id="rect135" />
  <rect
     transform="rotate(90)"
     x="120.46"
     y="-75.846"
     width="24.783"
     height="24.783"
     rx="0"
     ry="0"
     fill="#fff"
     fill-opacity=".3"
     stroke="#17181e"
     stroke-width="2.6458"
     id="rect136" />
  <rect
     transform="rotate(90)"
     x="120.46"
     y="-46.106"
     width="24.783"
     height="24.783"
     rx="0"
     ry="0"
     fill="#fff"
     stroke="#17181e"
     stroke-width="2.6458"
     id="rect137" />
  <rect
     transform="rotate(90)"
     x="21.323"
     y="-75.846"
     width="24.783"
     height="24.783"
     rx="0"
     ry="0"
     fill-opacity="0"
     stroke="#17181e"
     stroke-width="2.6458"
     id="rect138" />
  <rect
     transform="rotate(90)"
     x="145.24"
     y="-46.106"
     width="24.783"
     height="24.783"
     rx="0"
     ry="0"
     fill="#fff"
     stroke="#17181e"
     stroke-width="2.6458"
     id="rect139" />
  <rect
     transform="rotate(90)"
     x="170.02"
     y="-46.106"
     width="24.783"
     height="24.783"
     rx="0"
     ry="0"
     fill="#fff"
     stroke="#17181e"
     stroke-width="2.6458"
     id="rect140" />
  <circle
     transform="scale(-1,1)"
     cx="-45.395"
     cy="243.62"
     r="22.198"
     fill="#367bf0"
     fill-rule="evenodd"
     stroke="#000"
     stroke-linecap="round"
     stroke-linejoin="round"
     stroke-miterlimit="16.8"
     stroke-width="5.6867"
     style="paint-order:markers stroke fill"
     id="circle140" />
  <circle
     cx="107.83"
     cy="243.62"
     r="22.198"
     fill="#20a8af"
     fill-rule="evenodd"
     stroke="#000"
     stroke-linecap="round"
     stroke-linejoin="round"
     stroke-miterlimit="16.8"
     stroke-width="5.6867"
     style="paint-order:markers stroke fill"
     id="circle141" />
  <circle
     cx="170.25"
     cy="243.62"
     r="22.198"
     fill="#17917a"
     fill-rule="evenodd"
     stroke="#000"
     stroke-linecap="round"
     stroke-linejoin="round"
     stroke-miterlimit="16.8"
     stroke-width="5.6867"
     style="paint-order:markers stroke fill"
     id="circle142" />
  <circle
     cx="232.67"
     cy="243.62"
     r="22.198"
     fill="#ffc730"
     fill-rule="evenodd"
     stroke="#000"
     stroke-linecap="round"
     stroke-linejoin="round"
     stroke-miterlimit="16.8"
     stroke-width="5.6867"
     style="paint-order:markers stroke fill"
     id="circle143" />
  <circle
     cx="232.67"
     cy="243.62"
     r="16.609"
     fill-rule="evenodd"
     opacity=".25"
     stroke="#000"
     stroke-linecap="round"
     stroke-linejoin="round"
     stroke-miterlimit="16.8"
     stroke-width="4.2548"
     style="paint-order:markers stroke fill"
     id="circle144" />
  <circle
     cx="295.08"
     cy="243.62"
     r="22.198"
     fill="#fd7d00"
     fill-rule="evenodd"
     stroke="#000"
     stroke-linecap="round"
     stroke-linejoin="round"
     stroke-miterlimit="16.8"
     stroke-width="5.6867"
     style="paint-order:markers stroke fill"
     id="circle145" />
  <circle
     cx="357.5"
     cy="243.62"
     r="22.198"
     fill="#d41919"
     fill-rule="evenodd"
     stroke="#000"
     stroke-linecap="round"
     stroke-linejoin="round"
     stroke-miterlimit="16.8"
     stroke-width="5.6867"
     style="paint-order:markers stroke fill"
     id="circle146" />
  <circle
     cx="419.92"
     cy="243.62"
     r="22.198"
     fill="#b8174c"
     fill-rule="evenodd"
     stroke="#000"
     stroke-linecap="round"
     stroke-linejoin="round"
     stroke-miterlimit="16.8"
     stroke-width="5.6867"
     style="paint-order:markers stroke fill"
     id="circle147" />
  <circle
     cx="482.33"
     cy="243.62"
     r="22.198"
     fill="#941094"
     fill-rule="evenodd"
     stroke="#000"
     stroke-linecap="round"
     stroke-linejoin="round"
     stroke-miterlimit="16.8"
     stroke-width="5.6867"
     style="paint-order:markers stroke fill"
     id="circle148" />
  <circle
     transform="scale(-1,1)"
     cx="-544.89"
     cy="243.62"
     r="22.198"
     fill="#333643"
     fill-rule="evenodd"
     stroke="#000"
     stroke-linecap="round"
     stroke-linejoin="round"
     stroke-miterlimit="16.8"
     stroke-width="5.6867"
     style="paint-order:markers stroke fill;fill:#5b739d;fill-opacity:1"
     id="circle149" />
  <circle
     transform="scale(-1,1)"
     cx="-66.561"
     cy="270.08"
     r="22.198"
     fill="#2777ff"
     fill-rule="evenodd"
     stroke="#000"
     stroke-linecap="round"
     stroke-linejoin="round"
     stroke-miterlimit="16.8"
     stroke-width="5.6867"
     style="paint-order:markers stroke fill;stroke:#000000"
     id="circle150" />
  <circle
     cx="129"
     cy="270.08"
     r="22.198"
     fill="#0bbbc4"
     fill-rule="evenodd"
     stroke="#000"
     stroke-linecap="round"
     stroke-linejoin="round"
     stroke-miterlimit="16.8"
     stroke-width="5.6867"
     style="paint-order:markers stroke fill;stroke:#000000"
     id="circle151" />
  <circle
     cx="191.42"
     cy="270.08"
     r="22.198"
     fill="#06a284"
     fill-rule="evenodd"
     stroke="#000"
     stroke-linecap="round"
     stroke-linejoin="round"
     stroke-miterlimit="16.8"
     stroke-width="5.6867"
     style="paint-order:markers stroke fill;stroke:#000000"
     id="circle152" />
  <circle
     cx="253.83"
     cy="270.08"
     r="22.198"
     fill="#d69f0d"
     fill-rule="evenodd"
     stroke="#000"
     stroke-linecap="round"
     stroke-linejoin="round"
     stroke-miterlimit="16.8"
     stroke-width="5.6867"
     style="paint-order:markers stroke fill;stroke:#000000"
     id="circle153" />
  <circle
     cx="316.25"
     cy="270.08"
     r="22.198"
     fill="#fd7d00"
     fill-rule="evenodd"
     stroke="#000"
     stroke-linecap="round"
     stroke-linejoin="round"
     stroke-miterlimit="16.8"
     stroke-width="5.6867"
     style="paint-order:markers stroke fill;stroke:#000000"
     id="circle154" />
  <circle
     cx="378.67"
     cy="270.08"
     r="22.198"
     fill="#ec0101"
     fill-rule="evenodd"
     stroke="#000"
     stroke-linecap="round"
     stroke-linejoin="round"
     stroke-miterlimit="16.8"
     stroke-width="5.6867"
     style="paint-order:markers stroke fill;stroke:#000000"
     id="circle155" />
  <circle
     cx="441.08"
     cy="270.08"
     r="22.198"
     fill="#cd0245"
     fill-rule="evenodd"
     stroke="#000"
     stroke-linecap="round"
     stroke-linejoin="round"
     stroke-miterlimit="16.8"
     stroke-width="5.6867"
     style="paint-order:markers stroke fill;stroke:#000000"
     id="circle156" />
  <circle
     cx="503.5"
     cy="270.08"
     r="22.198"
     fill="#a400a4"
     fill-rule="evenodd"
     stroke="#000"
     stroke-linecap="round"
     stroke-linejoin="round"
     stroke-miterlimit="16.8"
     stroke-width="5.6867"
     style="paint-order:markers stroke fill;stroke:#000000"
     id="circle157" />
</svg>
